<svg width="161" height="160" viewBox="0 0 161 160" fill="none" xmlns="http://www.w3.org/2000/svg">
<circle cx="81" cy="80" r="80" fill="white"/>
<path d="M80.0039 90.8828H68.8711V121H48.3047V35.6875H81.8789C91.9961 35.6875 99.9062 37.9336 105.609 42.4258C111.312 46.918 114.164 53.2656 114.164 61.4688C114.164 67.4062 112.953 72.3281 110.531 76.2344C108.148 80.1406 104.398 83.3047 99.2812 85.7266L117.094 120.121V121H95.0625L80.0039 90.8828ZM68.8711 75.0039H81.8789C85.7852 75.0039 88.7148 73.9883 90.668 71.957C92.6602 69.8867 93.6562 67.0156 93.6562 63.3438C93.6562 59.6719 92.6602 56.8008 90.668 54.7305C88.6758 52.6211 85.7461 51.5664 81.8789 51.5664H68.8711V75.0039Z" fill="#EB4444"/>
<path d="M149 37C133.173 50.3171 81.415 77.361 1 79" stroke="black" stroke-width="10"/>
<path d="M83 66.4151L127.636 50L132.62 63.5517C136.432 73.9186 131.119 85.4133 120.752 89.2258L113.658 91.8347C103.291 95.6472 91.7962 90.3338 87.9837 79.9669L83 66.4151Z" fill="black"/>
</svg>
